<svg width="18" height="20" viewBox="0 0 18 20" fill="none" xmlns="http://www.w3.org/2000/svg">
<path d="M17.6316 14.5881C17.101 13.675 16.3125 11.0997 16.3125 7.75C16.3125 5.8106 15.5421 3.95064 14.1707 2.57928C12.7994 1.20792 10.9394 0.4375 9.00002 0.4375C7.06063 0.4375 5.20066 1.20792 3.82931 2.57928C2.45795 3.95064 1.68752 5.8106 1.68752 7.75C1.68752 11.1006 0.898148 13.675 0.367523 14.5881C0.2511 14.7875 0.189323 15.014 0.188425 15.2449C0.187528 15.4758 0.247542 15.7028 0.362412 15.903C0.477282 16.1033 0.642944 16.2697 0.842679 16.3855C1.04241 16.5013 1.26916 16.5623 1.50002 16.5625H5.48252C5.61915 17.3964 6.04772 18.1545 6.6917 18.7016C7.33569 19.2486 8.15317 19.549 8.99815 19.549C9.84313 19.549 10.6606 19.2486 11.3046 18.7016C11.9486 18.1545 12.3771 17.3964 12.5138 16.5625H16.5C16.7307 16.562 16.9572 16.5007 17.1567 16.3848C17.3562 16.2689 17.5216 16.1024 17.6362 15.9022C17.7509 15.702 17.8107 15.4751 17.8097 15.2444C17.8088 15.0137 17.747 14.7874 17.6306 14.5881H17.6316ZM9.00002 18.4375C8.4515 18.4373 7.91906 18.2521 7.48882 17.9119C7.05857 17.5716 6.75567 17.0962 6.62909 16.5625H11.371C11.2444 17.0962 10.9415 17.5716 10.5112 17.9119C10.081 18.2521 9.54855 18.4373 9.00002 18.4375ZM16.6603 15.3438C16.6449 15.3725 16.6219 15.3964 16.5938 15.4129C16.5657 15.4295 16.5336 15.438 16.501 15.4375H1.50002C1.46742 15.438 1.43532 15.4295 1.40722 15.4129C1.37912 15.3964 1.35609 15.3725 1.34065 15.3438C1.32419 15.3152 1.31553 15.2829 1.31553 15.25C1.31553 15.2171 1.32419 15.1848 1.34065 15.1562C2.05034 13.9375 2.81252 11.0959 2.81252 7.75C2.81252 6.10897 3.46442 4.53516 4.6248 3.37478C5.78518 2.2144 7.359 1.5625 9.00002 1.5625C10.6411 1.5625 12.2149 2.2144 13.3752 3.37478C14.5356 4.53516 15.1875 6.10897 15.1875 7.75C15.1875 11.095 15.9506 13.9328 16.6603 15.1562C16.6768 15.1848 16.6855 15.2171 16.6855 15.25C16.6855 15.2829 16.6768 15.3152 16.6603 15.3438Z" fill="#898989"/>
</svg>
