<svg width="24" height="24" viewBox="0 0 24 24" fill="none" xmlns="http://www.w3.org/2000/svg">
<path d="M19.1476 18.3521C19.2029 18.4036 19.2472 18.4657 19.278 18.5347C19.3087 18.6037 19.3252 18.6782 19.3266 18.7537C19.3279 18.8293 19.314 18.9043 19.2857 18.9743C19.2574 19.0444 19.2153 19.108 19.1619 19.1614C19.1085 19.2148 19.0449 19.2569 18.9748 19.2852C18.9048 19.3135 18.8298 19.3274 18.7542 19.3261C18.6787 19.3248 18.6042 19.3082 18.5352 19.2775C18.4662 19.2467 18.4041 19.2024 18.3526 19.1471L12.0001 12.7956L5.64763 19.1471C5.541 19.2465 5.39996 19.3006 5.25424 19.298C5.10851 19.2955 4.96947 19.2364 4.86641 19.1334C4.76335 19.0303 4.70432 18.8913 4.70175 18.7455C4.69918 18.5998 4.75327 18.4588 4.85263 18.3521L11.2042 11.9996L4.85263 5.64714C4.75327 5.54051 4.69918 5.39947 4.70175 5.25375C4.70432 5.10802 4.76335 4.96898 4.86641 4.86592C4.96947 4.76286 5.10851 4.70383 5.25424 4.70126C5.39996 4.69869 5.541 4.75278 5.64763 4.85214L12.0001 11.2037L18.3526 4.85214C18.4593 4.75278 18.6003 4.69869 18.746 4.70126C18.8917 4.70383 19.0308 4.76286 19.1338 4.86592C19.2369 4.96898 19.2959 5.10802 19.2985 5.25375C19.3011 5.39947 19.247 5.54051 19.1476 5.64714L12.7961 11.9996L19.1476 18.3521Z" fill="black"/>
</svg>
