<svg width="24" height="24" viewBox="0 0 24 24" fill="none" xmlns="http://www.w3.org/2000/svg">
<path d="M22.3125 7.75002C22.2423 7.66984 22.1558 7.60555 22.0588 7.56142C21.9618 7.51729 21.8566 7.49433 21.75 7.49408H17.5903L12.5625 1.75002C12.4921 1.67021 12.4056 1.60629 12.3086 1.56252C12.2116 1.51874 12.1064 1.49609 12 1.49609C11.8936 1.49609 11.7884 1.51874 11.6914 1.56252C11.5944 1.60629 11.5079 1.67021 11.4375 1.75002L6.40968 7.49408H2.24999C2.1431 7.49407 2.03744 7.51691 1.9401 7.56107C1.84276 7.60523 1.75598 7.66968 1.68558 7.75011C1.61518 7.83054 1.56279 7.92509 1.53191 8.02742C1.50104 8.12976 1.49239 8.23751 1.50655 8.34345L2.91936 18.9428C2.96865 19.3026 3.14626 19.6324 3.41949 19.8715C3.69272 20.1106 4.04316 20.2429 4.40624 20.2441H19.5937C19.9568 20.2429 20.3073 20.1106 20.5805 19.8715C20.8537 19.6324 21.0313 19.3026 21.0806 18.9428L22.4934 8.34345C22.5073 8.23735 22.4984 8.1295 22.4672 8.02715C22.436 7.92479 22.3832 7.8303 22.3125 7.75002ZM7.64999 17.2441C7.6247 17.2455 7.59934 17.2455 7.57405 17.2441C7.38748 17.245 7.20725 17.1764 7.06857 17.0516C6.92989 16.9267 6.84271 16.7547 6.82405 16.5691L6.29905 11.3191C6.27916 11.1212 6.33871 10.9234 6.46459 10.7694C6.59047 10.6154 6.77238 10.5177 6.9703 10.4978C7.16822 10.4779 7.36593 10.5375 7.51995 10.6634C7.67396 10.7893 7.77166 10.9712 7.79155 11.1691L8.31655 16.4191C8.33756 16.6169 8.27913 16.8149 8.15413 16.9696C8.02912 17.1243 7.84778 17.2231 7.64999 17.2441ZM12.75 16.4941C12.75 16.693 12.671 16.8838 12.5303 17.0244C12.3897 17.1651 12.1989 17.2441 12 17.2441C11.8011 17.2441 11.6103 17.1651 11.4697 17.0244C11.329 16.8838 11.25 16.693 11.25 16.4941V11.2441C11.25 11.0452 11.329 10.8544 11.4697 10.7137C11.6103 10.5731 11.8011 10.4941 12 10.4941C12.1989 10.4941 12.3897 10.5731 12.5303 10.7137C12.671 10.8544 12.75 11.0452 12.75 11.2441V16.4941ZM8.4028 7.49408L12 3.38314L15.5972 7.49408H8.4028ZM17.6962 11.3191L17.1712 16.5691C17.1527 16.7539 17.0661 16.9253 16.9285 17.05C16.7908 17.1747 16.6117 17.2438 16.4259 17.2441C16.4006 17.2455 16.3753 17.2455 16.35 17.2441C16.252 17.2342 16.1569 17.2052 16.0701 17.1586C15.9833 17.112 15.9066 17.0487 15.8443 16.9725C15.7819 16.8962 15.7352 16.8084 15.7068 16.7141C15.6784 16.6198 15.6689 16.5208 15.6787 16.4228L16.2037 11.1728C16.2236 10.9749 16.3213 10.793 16.4753 10.6671C16.6294 10.5412 16.8271 10.4817 17.025 10.5016C17.2229 10.5215 17.4048 10.6192 17.5307 10.7732C17.6566 10.9272 17.7161 11.1249 17.6962 11.3228V11.3191Z" fill="#003024"/>
</svg>
