<svg width="17" height="16" viewBox="0 0 17 16" fill="none" xmlns="http://www.w3.org/2000/svg">
<path d="M10.5984 6.265L8.86338 8L10.5984 9.735C10.6352 9.76933 10.6648 9.81073 10.6853 9.85673C10.7058 9.90273 10.7168 9.95239 10.7177 10.0027C10.7186 10.0531 10.7093 10.1031 10.6904 10.1498C10.6716 10.1965 10.6435 10.2389 10.6079 10.2745C10.5723 10.3101 10.5299 10.3382 10.4832 10.3571C10.4365 10.3759 10.3865 10.3852 10.3361 10.3843C10.2858 10.3834 10.2361 10.3724 10.1901 10.3519C10.1441 10.3314 10.1027 10.3018 10.0684 10.265L8.33338 8.53L6.59838 10.265C6.52729 10.3312 6.43327 10.3673 6.33612 10.3656C6.23897 10.3639 6.14627 10.3245 6.07757 10.2558C6.00886 10.1871 5.9695 10.0944 5.96779 9.99726C5.96607 9.90011 6.00214 9.80609 6.06838 9.735L7.80338 8L6.06838 6.265C6.00214 6.19391 5.96607 6.09989 5.96779 6.00274C5.9695 5.90559 6.00886 5.8129 6.07757 5.74419C6.14627 5.67548 6.23897 5.63613 6.33612 5.63441C6.43327 5.6327 6.52729 5.66876 6.59838 5.735L8.33338 7.47L10.0684 5.735C10.1395 5.66876 10.2335 5.6327 10.3306 5.63441C10.4278 5.63613 10.5205 5.67548 10.5892 5.74419C10.6579 5.8129 10.6973 5.90559 10.699 6.00274C10.7007 6.09989 10.6646 6.19391 10.5984 6.265ZM14.7084 8C14.7084 9.26086 14.3345 10.4934 13.634 11.5418C12.9335 12.5901 11.9379 13.4072 10.773 13.8897C9.6081 14.3722 8.3263 14.4985 7.08968 14.2525C5.85305 14.0065 4.71713 13.3994 3.82557 12.5078C2.93401 11.6162 2.32685 10.4803 2.08087 9.2437C1.83489 8.00707 1.96114 6.72527 2.44364 5.56039C2.92615 4.39551 3.74325 3.39988 4.79162 2.69938C5.83998 1.99889 7.07252 1.625 8.33338 1.625C10.0235 1.62698 11.6439 2.29927 12.839 3.49439C14.0341 4.6895 14.7064 6.30985 14.7084 8ZM13.9584 8C13.9584 6.88748 13.6285 5.79994 13.0104 4.87492C12.3923 3.94989 11.5138 3.22892 10.486 2.80318C9.45814 2.37743 8.32714 2.26604 7.23599 2.48308C6.14485 2.70012 5.14257 3.23585 4.3559 4.02252C3.56923 4.80919 3.0335 5.81147 2.81646 6.90262C2.59942 7.99376 2.71081 9.12476 3.13655 10.1526C3.5623 11.1804 4.28327 12.0589 5.20829 12.677C6.13332 13.2951 7.22086 13.625 8.33338 13.625C9.82471 13.6233 11.2545 13.0302 12.309 11.9756C13.3636 10.9211 13.9567 9.49133 13.9584 8Z" fill="#E30E0E"/>
</svg>
