<svg width="24" height="24" viewBox="0 0 24 24" fill="none" xmlns="http://www.w3.org/2000/svg">
<path d="M21.5625 12.7901C21.4064 14.607 20.7345 16.3416 19.626 17.7897C18.5175 19.2377 17.0184 20.3391 15.3052 20.9641C13.592 21.5891 11.7359 21.7119 9.95537 21.3178C8.1748 20.9238 6.5438 20.0294 5.25428 18.7399C3.96477 17.4504 3.07038 15.8194 2.67634 14.0388C2.28231 12.2582 2.40503 10.4021 3.03007 8.68894C3.6551 6.97575 4.75644 5.4767 6.20451 4.36819C7.65258 3.25968 9.38714 2.58781 11.2041 2.43164C11.3533 2.41921 11.5013 2.46655 11.6156 2.56325C11.7298 2.65994 11.801 2.79808 11.8135 2.94726C11.8259 3.09645 11.7786 3.24446 11.6819 3.35874C11.5852 3.47302 11.447 3.54421 11.2978 3.55664C9.69402 3.69398 8.16281 4.28659 6.88438 5.26471C5.60595 6.24283 4.63352 7.56577 4.0815 9.07784C3.52949 10.5899 3.42087 12.2282 3.76843 13.7999C4.11598 15.3717 4.90525 16.8114 6.04336 17.9497C7.18146 19.0881 8.62104 19.8776 10.1927 20.2255C11.7643 20.5734 13.4027 20.4651 14.9148 19.9134C16.427 19.3617 17.7502 18.3895 18.7286 17.1113C19.7069 15.8331 20.2999 14.302 20.4375 12.6982C20.4437 12.6243 20.4643 12.5524 20.4983 12.4865C20.5322 12.4206 20.5788 12.3621 20.6354 12.3142C20.7497 12.2175 20.8977 12.1701 21.0469 12.1826C21.1208 12.1887 21.1927 12.2094 21.2586 12.2433C21.3245 12.2773 21.383 12.3239 21.4309 12.3805C21.4788 12.4371 21.5151 12.5025 21.5376 12.5731C21.5602 12.6437 21.5687 12.7181 21.5625 12.792V12.7901ZM11.4375 6.74414V11.9941C11.4375 12.1433 11.4968 12.2864 11.6023 12.3919C11.7078 12.4974 11.8508 12.5566 12 12.5566H17.25C17.3992 12.5566 17.5423 12.4974 17.6478 12.3919C17.7533 12.2864 17.8125 12.1433 17.8125 11.9941C17.8125 11.845 17.7533 11.7019 17.6478 11.5964C17.5423 11.4909 17.3992 11.4316 17.25 11.4316H12.5625V6.74414C12.5625 6.59495 12.5033 6.45188 12.3978 6.34639C12.2923 6.2409 12.1492 6.18164 12 6.18164C11.8508 6.18164 11.7078 6.2409 11.6023 6.34639C11.4968 6.45188 11.4375 6.59495 11.4375 6.74414ZM15 4.30664C15.1854 4.30664 15.3667 4.25166 15.5209 4.14864C15.675 4.04563 15.7952 3.89921 15.8662 3.7279C15.9371 3.5566 15.9557 3.3681 15.9195 3.18624C15.8833 3.00438 15.7941 2.83734 15.6629 2.70623C15.5318 2.57511 15.3648 2.48583 15.1829 2.44965C15.0011 2.41348 14.8126 2.43204 14.6413 2.503C14.47 2.57396 14.3235 2.69412 14.2205 2.84829C14.1175 3.00246 14.0625 3.18372 14.0625 3.36914C14.0625 3.49225 14.0868 3.61416 14.1339 3.7279C14.181 3.84165 14.2501 3.945 14.3371 4.03205C14.5129 4.20787 14.7514 4.30664 15 4.30664ZM18.375 6.55664C18.5604 6.55664 18.7417 6.50166 18.8959 6.39864C19.05 6.29563 19.1702 6.14921 19.2412 5.9779C19.3121 5.8066 19.3307 5.6181 19.2945 5.43624C19.2583 5.25438 19.1691 5.08734 19.0379 4.95623C18.9068 4.82511 18.7398 4.73583 18.5579 4.69965C18.3761 4.66348 18.1876 4.68204 18.0163 4.753C17.845 4.82396 17.6985 4.94412 17.5955 5.09829C17.4925 5.25246 17.4375 5.43372 17.4375 5.61914C17.4375 5.86778 17.5363 6.10624 17.7121 6.28205C17.8879 6.45787 18.1264 6.55664 18.375 6.55664ZM20.625 9.93164C20.8104 9.93164 20.9917 9.87666 21.1459 9.77364C21.3 9.67063 21.4202 9.52421 21.4912 9.3529C21.5621 9.1816 21.5807 8.9931 21.5445 8.81124C21.5083 8.62938 21.4191 8.46234 21.2879 8.33123C21.1568 8.20011 20.9898 8.11083 20.8079 8.07465C20.6261 8.03848 20.4376 8.05704 20.2663 8.128C20.095 8.19896 19.9485 8.31912 19.8455 8.47329C19.7425 8.62746 19.6875 8.80872 19.6875 8.99414C19.6875 9.24278 19.7863 9.48124 19.9621 9.65705C20.1379 9.83287 20.3764 9.93164 20.625 9.93164Z" fill="black"/>
</svg>
