<svg width="24" height="24" viewBox="0 0 24 24" fill="none" xmlns="http://www.w3.org/2000/svg">
<path d="M22.5 19.4934H21V12.7434L21.2194 12.9628C21.3604 13.1035 21.5515 13.1825 21.7507 13.1823C21.9499 13.1821 22.1408 13.1028 22.2816 12.9618C22.4223 12.8209 22.5013 12.6298 22.5011 12.4306C22.5009 12.2314 22.4216 12.0404 22.2806 11.8997L13.0603 2.68216C12.779 2.40106 12.3977 2.24316 12 2.24316C11.6023 2.24316 11.221 2.40106 10.9397 2.68216L1.71938 11.8997C1.57877 12.0404 1.49983 12.2312 1.49991 12.4301C1.5 12.6291 1.57911 12.8198 1.71984 12.9604C1.86057 13.101 2.0514 13.18 2.25033 13.1799C2.44927 13.1798 2.64002 13.1007 2.78062 12.96L3 12.7434V19.4934H1.5C1.30109 19.4934 1.11032 19.5724 0.96967 19.7131C0.829018 19.8537 0.75 20.0445 0.75 20.2434C0.75 20.4423 0.829018 20.6331 0.96967 20.7737C1.11032 20.9144 1.30109 20.9934 1.5 20.9934H22.5C22.6989 20.9934 22.8897 20.9144 23.0303 20.7737C23.171 20.6331 23.25 20.4423 23.25 20.2434C23.25 20.0445 23.171 19.8537 23.0303 19.7131C22.8897 19.5724 22.6989 19.4934 22.5 19.4934ZM14.25 19.4934H9.75V14.9934C9.75 14.8939 9.78951 14.7986 9.85983 14.7282C9.93016 14.6579 10.0255 14.6184 10.125 14.6184H13.875C13.9745 14.6184 14.0698 14.6579 14.1402 14.7282C14.2105 14.7986 14.25 14.8939 14.25 14.9934V19.4934Z" fill="#003024"/>
</svg>
