<svg width="41" height="40" viewBox="0 0 41 40" fill="none" xmlns="http://www.w3.org/2000/svg">
<path d="M34.25 6.5625H6.75C6.16984 6.5625 5.61344 6.79297 5.2032 7.2032C4.79297 7.61344 4.5625 8.16984 4.5625 8.75V31.25C4.5625 31.8302 4.79297 32.3866 5.2032 32.7968C5.61344 33.207 6.16984 33.4375 6.75 33.4375H34.25C34.8302 33.4375 35.3866 33.207 35.7968 32.7968C36.207 32.3866 36.4375 31.8302 36.4375 31.25V8.75C36.4375 8.16984 36.207 7.61344 35.7968 7.2032C35.3866 6.79297 34.8302 6.5625 34.25 6.5625ZM6.75 8.4375H34.25C34.3329 8.4375 34.4124 8.47042 34.471 8.52903C34.5296 8.58763 34.5625 8.66712 34.5625 8.75V25.5578L29.9578 20.9531C29.7547 20.75 29.5135 20.5888 29.2481 20.4789C28.9827 20.3689 28.6982 20.3123 28.4109 20.3123C28.1237 20.3123 27.8392 20.3689 27.5738 20.4789C27.3083 20.5888 27.0672 20.75 26.8641 20.9531L23.5172 24.3L16.4219 17.2031C16.2187 17 15.9776 16.8388 15.7122 16.7289C15.4468 16.6189 15.1623 16.5623 14.875 16.5623C14.5877 16.5623 14.3032 16.6189 14.0378 16.7289C13.7724 16.8388 13.5313 17 13.3281 17.2031L6.4375 24.0938V8.75C6.4375 8.66712 6.47042 8.58763 6.52903 8.52903C6.58763 8.47042 6.66712 8.4375 6.75 8.4375ZM6.4375 31.25V26.7453L14.6531 18.5297C14.6822 18.5004 14.7167 18.4771 14.7548 18.4613C14.7929 18.4454 14.8337 18.4373 14.875 18.4373C14.9163 18.4373 14.9571 18.4454 14.9952 18.4613C15.0333 18.4771 15.0678 18.5004 15.0969 18.5297L28.1297 31.5625H6.75C6.66712 31.5625 6.58763 31.5296 6.52903 31.471C6.47042 31.4124 6.4375 31.3329 6.4375 31.25ZM34.25 31.5625H30.7812L24.8438 25.625L28.1891 22.2781C28.2181 22.2491 28.2526 22.226 28.2905 22.2103C28.3284 22.1946 28.3691 22.1865 28.4102 22.1865C28.4512 22.1865 28.4919 22.1946 28.5298 22.2103C28.5678 22.226 28.6022 22.2491 28.6312 22.2781L34.5687 28.2156V31.25C34.5688 31.2916 34.5605 31.3327 34.5444 31.371C34.5283 31.4094 34.5047 31.4441 34.475 31.4732C34.4453 31.5023 34.4101 31.5252 34.3715 31.5405C34.3329 31.5559 34.2916 31.5633 34.25 31.5625ZM23.3125 15.625C23.3125 15.316 23.4041 15.0139 23.5758 14.7569C23.7475 14.5 23.9915 14.2997 24.2771 14.1814C24.5626 14.0632 24.8767 14.0322 25.1798 14.0925C25.4829 14.1528 25.7613 14.3016 25.9799 14.5201C26.1984 14.7387 26.3472 15.0171 26.4075 15.3202C26.4678 15.6233 26.4368 15.9374 26.3186 16.2229C26.2003 16.5085 26 16.7525 25.7431 16.9242C25.4861 17.0959 25.184 17.1875 24.875 17.1875C24.4606 17.1875 24.0632 17.0229 23.7701 16.7299C23.4771 16.4368 23.3125 16.0394 23.3125 15.625Z" fill="#898989"/>
</svg>
