<svg width="18" height="18" viewBox="0 0 18 18" fill="none" xmlns="http://www.w3.org/2000/svg">
<path d="M8.81251 9.75V15.75C8.81251 15.8992 8.75324 16.0423 8.64775 16.1477C8.54226 16.2532 8.39919 16.3125 8.25001 16.3125C8.10082 16.3125 7.95775 16.2532 7.85226 16.1477C7.74677 16.0423 7.68751 15.8992 7.68751 15.75V11.1084L1.14751 17.6475C1.04088 17.7469 0.899841 17.801 0.754115 17.7984C0.608389 17.7958 0.46935 17.7368 0.36629 17.6337C0.263231 17.5307 0.204197 17.3916 0.201626 17.2459C0.199055 17.1002 0.253147 16.9591 0.352507 16.8525L6.89157 10.3125H2.25001C2.10082 10.3125 1.95775 10.2532 1.85226 10.1477C1.74677 10.0423 1.68751 9.89918 1.68751 9.75C1.68751 9.60082 1.74677 9.45774 1.85226 9.35225C1.95775 9.24676 2.10082 9.1875 2.25001 9.1875H8.25001C8.39919 9.1875 8.54226 9.24676 8.64775 9.35225C8.75324 9.45774 8.81251 9.60082 8.81251 9.75ZM16.5 0.1875H4.50001C4.15191 0.1875 3.81807 0.325781 3.57193 0.571922C3.32579 0.818064 3.18751 1.1519 3.18751 1.5V6C3.18751 6.14918 3.24677 6.29226 3.35226 6.39775C3.45775 6.50324 3.60082 6.5625 3.75001 6.5625C3.89919 6.5625 4.04226 6.50324 4.14775 6.39775C4.25324 6.29226 4.31251 6.14918 4.31251 6V1.5C4.31251 1.45027 4.33226 1.40258 4.36742 1.36742C4.40259 1.33225 4.45028 1.3125 4.50001 1.3125H16.5C16.5497 1.3125 16.5974 1.33225 16.6326 1.36742C16.6678 1.40258 16.6875 1.45027 16.6875 1.5V13.5C16.6875 13.5497 16.6678 13.5974 16.6326 13.6326C16.5974 13.6677 16.5497 13.6875 16.5 13.6875H12C11.8508 13.6875 11.7077 13.7468 11.6023 13.8523C11.4968 13.9577 11.4375 14.1008 11.4375 14.25C11.4375 14.3992 11.4968 14.5423 11.6023 14.6477C11.7077 14.7532 11.8508 14.8125 12 14.8125H16.5C16.8481 14.8125 17.1819 14.6742 17.4281 14.4281C17.6742 14.1819 17.8125 13.8481 17.8125 13.5V1.5C17.8125 1.1519 17.6742 0.818064 17.4281 0.571922C17.1819 0.325781 16.8481 0.1875 16.5 0.1875Z" fill="black"/>
</svg>
