<svg width="24" height="24" viewBox="0 0 24 24" fill="none" xmlns="http://www.w3.org/2000/svg">
<path d="M12 7.67977C11.1471 7.67977 10.3133 7.93269 9.60411 8.40655C8.89492 8.88042 8.34218 9.55394 8.01578 10.3419C7.68937 11.13 7.60397 11.997 7.77037 12.8336C7.93677 13.6701 8.3475 14.4386 8.95061 15.0417C9.55372 15.6448 10.3221 16.0555 11.1587 16.2219C11.9952 16.3883 12.8623 16.3029 13.6503 15.9765C14.4383 15.6501 15.1119 15.0973 15.5857 14.3882C16.0596 13.679 16.3125 12.8452 16.3125 11.9923C16.311 10.849 15.8562 9.75294 15.0478 8.94451C14.2393 8.13608 13.1433 7.68125 12 7.67977ZM12 15.1798C11.3696 15.1798 10.7533 14.9928 10.2291 14.6426C9.70495 14.2923 9.2964 13.7945 9.05514 13.2121C8.81389 12.6296 8.75076 11.9887 8.87375 11.3704C8.99674 10.7521 9.30032 10.1841 9.7461 9.73836C10.1919 9.29258 10.7598 8.989 11.3782 8.86601C11.9965 8.74302 12.6374 8.80615 13.2198 9.0474C13.8022 9.28865 14.3001 9.6972 14.6503 10.2214C15.0006 10.7456 15.1875 11.3618 15.1875 11.9923C15.1875 12.8376 14.8517 13.6484 14.2539 14.2462C13.6561 14.8439 12.8454 15.1798 12 15.1798ZM22.125 10.0798C22.1087 10.0014 22.0758 9.92737 22.0286 9.8627C21.9814 9.79803 21.9209 9.74419 21.8513 9.70477L18.9975 8.07539L18.9581 8.00883L18.9469 4.79227C18.9469 4.71102 18.9293 4.63073 18.8953 4.55694C18.8613 4.48314 18.8118 4.41758 18.75 4.36477C17.7533 3.52198 16.6059 2.87588 15.3684 2.4607C15.2941 2.43569 15.2153 2.42652 15.1371 2.43379C15.059 2.44106 14.9832 2.46459 14.9147 2.50289L12.0431 4.10414H11.9494L9.08532 2.50102C9.0165 2.46261 8.94038 2.43908 8.86189 2.43198C8.7834 2.42487 8.70429 2.43434 8.6297 2.45977C7.39238 2.87615 6.24547 3.52389 5.25001 4.36852C5.18804 4.42105 5.13819 4.48638 5.10388 4.56001C5.06957 4.63365 5.05162 4.71384 5.05126 4.79508L5.03626 8.01445C5.02313 8.03602 5.01001 8.05852 4.99782 8.08102L2.14782 9.70195C2.07778 9.74198 2.01717 9.7966 1.9701 9.86211C1.92303 9.92762 1.8906 10.0025 1.87501 10.0816C1.62467 11.3437 1.62467 12.6427 1.87501 13.9048C1.89132 13.9832 1.92418 14.0572 1.97139 14.1218C2.0186 14.1865 2.07907 14.2403 2.14876 14.2798L5.00063 15.9045L5.04001 15.971L5.05126 19.1876C5.0508 19.2698 5.06836 19.351 5.1027 19.4257C5.13704 19.5004 5.18732 19.5666 5.25001 19.6198C6.24667 20.4625 7.39413 21.1087 8.63157 21.5238C8.70596 21.5488 8.78476 21.558 8.86291 21.5507C8.94105 21.5435 9.01682 21.5199 9.08532 21.4816L11.955 19.8804H12.0488L14.9138 21.4835C14.9976 21.5298 15.0917 21.5543 15.1875 21.5548C15.2491 21.5551 15.3103 21.5449 15.3684 21.5248C16.6041 21.1078 17.7494 20.4601 18.7434 19.616C18.8054 19.5635 18.8553 19.4982 18.8896 19.4245C18.9239 19.3509 18.9418 19.2707 18.9422 19.1895L18.9572 15.9701C18.9703 15.9485 18.9834 15.926 18.9956 15.9035L21.8475 14.2826C21.9177 14.2427 21.9785 14.1881 22.0258 14.1226C22.073 14.057 22.1056 13.9821 22.1213 13.9029C22.3728 12.6411 22.3741 11.3421 22.125 10.0798ZM21.0703 13.4351L18.3113 15.0016C18.2218 15.0528 18.1479 15.1274 18.0975 15.2173C18.0422 15.311 17.9841 15.4151 17.9231 15.5116C17.8677 15.6005 17.8381 15.7031 17.8378 15.8079L17.8228 18.9213C17.0471 19.5427 16.1758 20.0344 15.2428 20.3773L12.4688 18.8248C12.3849 18.7776 12.2903 18.7527 12.1941 18.7526H11.8303C11.7297 18.7502 11.6303 18.7748 11.5425 18.8238L8.76094 20.3763C7.82678 20.0353 6.95418 19.5448 6.1772 18.9241L6.16595 15.8145C6.16565 15.7097 6.1361 15.6071 6.08063 15.5182C6.02063 15.4245 5.96157 15.3232 5.90626 15.2238C5.85637 15.1338 5.78277 15.0593 5.69345 15.0082L2.93438 13.436C2.774 12.4805 2.774 11.505 2.93438 10.5495L5.68876 8.98289C5.7796 8.93224 5.85483 8.85767 5.90626 8.76727C5.96157 8.67352 6.0197 8.56945 6.08063 8.47289C6.1361 8.38401 6.16565 8.28141 6.16595 8.17664L6.18095 5.0632C6.95557 4.44215 7.82556 3.95049 8.7572 3.60727L11.5313 5.15977C11.6187 5.20972 11.7184 5.23439 11.8191 5.23102H12.1697C12.2703 5.23343 12.3697 5.20883 12.4575 5.15977L15.2372 3.60727C16.1714 3.9483 17.044 4.43875 17.8209 5.05945L17.8322 8.16914C17.8325 8.27391 17.862 8.37651 17.9175 8.46539C17.9775 8.55914 18.0366 8.66039 18.0919 8.75977C18.1418 8.84975 18.2154 8.92433 18.3047 8.97539L21.0656 10.5485C21.2269 11.5039 21.2279 12.4794 21.0684 13.4351H21.0703Z" fill="black"/>
</svg>
