<svg width="24" height="24" viewBox="0 0 24 24" fill="none" xmlns="http://www.w3.org/2000/svg">
<path d="M15.5625 11.9932C15.5625 12.1423 15.5032 12.2854 15.3977 12.3909C15.2923 12.4964 15.1492 12.5557 15 12.5557H9C8.85082 12.5557 8.70774 12.4964 8.60225 12.3909C8.49676 12.2854 8.4375 12.1423 8.4375 11.9932C8.4375 11.844 8.49676 11.7009 8.60225 11.5954C8.70774 11.4899 8.85082 11.4307 9 11.4307H15C15.1492 11.4307 15.2923 11.4899 15.3977 11.5954C15.5032 11.7009 15.5625 11.844 15.5625 11.9932ZM15 14.4307H9C8.85082 14.4307 8.70774 14.4899 8.60225 14.5954C8.49676 14.7009 8.4375 14.844 8.4375 14.9932C8.4375 15.1423 8.49676 15.2854 8.60225 15.3909C8.70774 15.4964 8.85082 15.5557 9 15.5557H15C15.1492 15.5557 15.2923 15.4964 15.3977 15.3909C15.5032 15.2854 15.5625 15.1423 15.5625 14.9932C15.5625 14.844 15.5032 14.7009 15.3977 14.5954C15.2923 14.4899 15.1492 14.4307 15 14.4307ZM20.0625 3.74316V18.7432C20.0625 19.4891 19.7662 20.2045 19.2387 20.7319C18.7113 21.2593 17.9959 21.5557 17.25 21.5557H6.75C6.00408 21.5557 5.28871 21.2593 4.76126 20.7319C4.23382 20.2045 3.9375 19.4891 3.9375 18.7432V3.74316C3.9375 3.59398 3.99676 3.45091 4.10225 3.34542C4.20774 3.23993 4.35082 3.18066 4.5 3.18066H6.9375V2.24316C6.9375 2.09398 6.99676 1.95091 7.10225 1.84542C7.20774 1.73993 7.35082 1.68066 7.5 1.68066C7.64918 1.68066 7.79226 1.73993 7.89775 1.84542C8.00324 1.95091 8.0625 2.09398 8.0625 2.24316V3.18066H11.4375V2.24316C11.4375 2.09398 11.4968 1.95091 11.6023 1.84542C11.7077 1.73993 11.8508 1.68066 12 1.68066C12.1492 1.68066 12.2923 1.73993 12.3977 1.84542C12.5032 1.95091 12.5625 2.09398 12.5625 2.24316V3.18066H15.9375V2.24316C15.9375 2.09398 15.9968 1.95091 16.1023 1.84542C16.2077 1.73993 16.3508 1.68066 16.5 1.68066C16.6492 1.68066 16.7923 1.73993 16.8977 1.84542C17.0032 1.95091 17.0625 2.09398 17.0625 2.24316V3.18066H19.5C19.6492 3.18066 19.7923 3.23993 19.8977 3.34542C20.0032 3.45091 20.0625 3.59398 20.0625 3.74316ZM18.9375 4.30566H17.0625V5.24316C17.0625 5.39235 17.0032 5.53542 16.8977 5.64091C16.7923 5.7464 16.6492 5.80566 16.5 5.80566C16.3508 5.80566 16.2077 5.7464 16.1023 5.64091C15.9968 5.53542 15.9375 5.39235 15.9375 5.24316V4.30566H12.5625V5.24316C12.5625 5.39235 12.5032 5.53542 12.3977 5.64091C12.2923 5.7464 12.1492 5.80566 12 5.80566C11.8508 5.80566 11.7077 5.7464 11.6023 5.64091C11.4968 5.53542 11.4375 5.39235 11.4375 5.24316V4.30566H8.0625V5.24316C8.0625 5.39235 8.00324 5.53542 7.89775 5.64091C7.79226 5.7464 7.64918 5.80566 7.5 5.80566C7.35082 5.80566 7.20774 5.7464 7.10225 5.64091C6.99676 5.53542 6.9375 5.39235 6.9375 5.24316V4.30566H5.0625V18.7432C5.0625 19.1907 5.24029 19.6199 5.55676 19.9364C5.87323 20.2529 6.30245 20.4307 6.75 20.4307H17.25C17.6976 20.4307 18.1268 20.2529 18.4432 19.9364C18.7597 19.6199 18.9375 19.1907 18.9375 18.7432V4.30566Z" fill="black"/>
</svg>
