<svg width="18" height="18" viewBox="0 0 18 18" fill="none" xmlns="http://www.w3.org/2000/svg">
<path d="M17.8125 0.744141V4.49414C17.8125 4.64332 17.7532 4.7864 17.6477 4.89189C17.5423 4.99738 17.3992 5.05664 17.25 5.05664C17.1008 5.05664 16.9577 4.99738 16.8523 4.89189C16.7468 4.7864 16.6875 4.64332 16.6875 4.49414V1.30664H13.5C13.3508 1.30664 13.2077 1.24738 13.1023 1.14189C12.9968 1.0364 12.9375 0.893325 12.9375 0.744141C12.9375 0.594956 12.9968 0.451882 13.1023 0.346393C13.2077 0.240904 13.3508 0.181641 13.5 0.181641H17.25C17.3992 0.181641 17.5423 0.240904 17.6477 0.346393C17.7532 0.451882 17.8125 0.594956 17.8125 0.744141ZM4.5 16.6816H1.3125V13.4941C1.3125 13.345 1.25324 13.2019 1.14775 13.0964C1.04226 12.9909 0.899184 12.9316 0.75 12.9316C0.600816 12.9316 0.457742 12.9909 0.352252 13.0964C0.246763 13.2019 0.1875 13.345 0.1875 13.4941V17.2441C0.1875 17.3933 0.246763 17.5364 0.352252 17.6419C0.457742 17.7474 0.600816 17.8066 0.75 17.8066H4.5C4.64918 17.8066 4.79226 17.7474 4.89775 17.6419C5.00324 17.5364 5.0625 17.3933 5.0625 17.2441C5.0625 17.095 5.00324 16.9519 4.89775 16.8464C4.79226 16.7409 4.64918 16.6816 4.5 16.6816ZM17.25 12.9316C17.1008 12.9316 16.9577 12.9909 16.8523 13.0964C16.7468 13.2019 16.6875 13.345 16.6875 13.4941V16.6816H13.5C13.3508 16.6816 13.2077 16.7409 13.1023 16.8464C12.9968 16.9519 12.9375 17.095 12.9375 17.2441C12.9375 17.3933 12.9968 17.5364 13.1023 17.6419C13.2077 17.7474 13.3508 17.8066 13.5 17.8066H17.25C17.3992 17.8066 17.5423 17.7474 17.6477 17.6419C17.7532 17.5364 17.8125 17.3933 17.8125 17.2441V13.4941C17.8125 13.345 17.7532 13.2019 17.6477 13.0964C17.5423 12.9909 17.3992 12.9316 17.25 12.9316ZM0.75 5.05664C0.899184 5.05664 1.04226 4.99738 1.14775 4.89189C1.25324 4.7864 1.3125 4.64332 1.3125 4.49414V1.30664H4.5C4.64918 1.30664 4.79226 1.24738 4.89775 1.14189C5.00324 1.0364 5.0625 0.893325 5.0625 0.744141C5.0625 0.594956 5.00324 0.451882 4.89775 0.346393C4.79226 0.240904 4.64918 0.181641 4.5 0.181641H0.75C0.600816 0.181641 0.457742 0.240904 0.352252 0.346393C0.246763 0.451882 0.1875 0.594956 0.1875 0.744141V4.49414C0.1875 4.64332 0.246763 4.7864 0.352252 4.89189C0.457742 4.99738 0.600816 5.05664 0.75 5.05664ZM4.5 3.93164H13.5C13.6492 3.93164 13.7923 3.9909 13.8977 4.09639C14.0032 4.20188 14.0625 4.34496 14.0625 4.49414V13.4941C14.0625 13.6433 14.0032 13.7864 13.8977 13.8919C13.7923 13.9974 13.6492 14.0566 13.5 14.0566H4.5C4.35082 14.0566 4.20774 13.9974 4.10225 13.8919C3.99676 13.7864 3.9375 13.6433 3.9375 13.4941V4.49414C3.9375 4.34496 3.99676 4.20188 4.10225 4.09639C4.20774 3.9909 4.35082 3.93164 4.5 3.93164ZM5.0625 12.9316H12.9375V5.05664H5.0625V12.9316Z" fill="black"/>
</svg>
