<svg width="14" height="14" viewBox="0 0 14 14" fill="none" xmlns="http://www.w3.org/2000/svg">
<path d="M7.33338 0.625C6.07252 0.625 4.83998 0.998887 3.79162 1.69938C2.74325 2.39988 1.92615 3.39551 1.44364 4.56039C0.961136 5.72527 0.83489 7.00707 1.08087 8.2437C1.32685 9.48033 1.93401 10.6162 2.82557 11.5078C3.71713 12.3994 4.85305 13.0065 6.08968 13.2525C7.3263 13.4985 8.6081 13.3722 9.77298 12.8897C10.9379 12.4072 11.9335 11.5901 12.634 10.5418C13.3345 9.4934 13.7084 8.26086 13.7084 7C13.7064 5.30985 13.0341 3.6895 11.839 2.49439C10.6439 1.29927 9.02352 0.626985 7.33338 0.625ZM7.33338 12.625C6.22086 12.625 5.13332 12.2951 4.20829 11.677C3.28327 11.0589 2.5623 10.1804 2.13655 9.15259C1.71081 8.12476 1.59942 6.99376 1.81646 5.90262C2.0335 4.81147 2.56923 3.80919 3.3559 3.02252C4.14257 2.23585 5.14485 1.70012 6.23599 1.48308C7.32714 1.26604 8.45814 1.37743 9.48597 1.80318C10.5138 2.22892 11.3923 2.94989 12.0104 3.87492C12.6285 4.79994 12.9584 5.88748 12.9584 7C12.9567 8.49133 12.3636 9.92111 11.309 10.9756C10.2545 12.0302 8.82471 12.6233 7.33338 12.625ZM6.95838 7.5V4C6.95838 3.90054 6.99789 3.80516 7.06821 3.73484C7.13854 3.66451 7.23392 3.625 7.33338 3.625C7.43283 3.625 7.52822 3.66451 7.59854 3.73484C7.66887 3.80516 7.70838 3.90054 7.70838 4V7.5C7.70838 7.59946 7.66887 7.69484 7.59854 7.76517C7.52822 7.83549 7.43283 7.875 7.33338 7.875C7.23392 7.875 7.13854 7.83549 7.06821 7.76517C6.99789 7.69484 6.95838 7.59946 6.95838 7.5ZM7.95838 9.75C7.95838 9.87361 7.92172 9.99445 7.85305 10.0972C7.78437 10.2 7.68676 10.2801 7.57255 10.3274C7.45835 10.3747 7.33268 10.3871 7.21145 10.363C7.09021 10.3389 6.97884 10.2794 6.89144 10.1919C6.80403 10.1045 6.7445 9.99317 6.72039 9.87193C6.69627 9.75069 6.70865 9.62503 6.75595 9.51082C6.80326 9.39662 6.88336 9.29901 6.98615 9.23033C7.08893 9.16166 7.20976 9.125 7.33338 9.125C7.49914 9.125 7.65811 9.19085 7.77532 9.30806C7.89253 9.42527 7.95838 9.58424 7.95838 9.75Z" fill="#E8B400"/>
</svg>
