<svg width="24" height="24" viewBox="0 0 24 24" fill="none" xmlns="http://www.w3.org/2000/svg">
<path d="M19.5 9.00059C19.5 8.77809 19.566 8.56058 19.6896 8.37558C19.8132 8.19057 19.9889 8.04638 20.1945 7.96123C20.4 7.87608 20.6262 7.8538 20.8445 7.89721C21.0627 7.94062 21.2631 8.04777 21.4205 8.2051C21.5778 8.36243 21.685 8.56289 21.7284 8.78112C21.7718 8.99935 21.7495 9.22555 21.6644 9.43111C21.5792 9.63668 21.435 9.81238 21.25 9.936C21.065 10.0596 20.8475 10.1256 20.625 10.1256C20.3266 10.1256 20.0405 10.0071 19.8295 9.79609C19.6185 9.58511 19.5 9.29896 19.5 9.00059ZM18.375 6.7506C18.5975 6.7506 18.815 6.68462 19 6.561C19.185 6.43738 19.3292 6.26168 19.4144 6.05611C19.4995 5.85055 19.5218 5.62435 19.4784 5.40612C19.435 5.18789 19.3278 4.98743 19.1705 4.8301C19.0131 4.67277 18.8127 4.56562 18.5945 4.52221C18.3762 4.4788 18.15 4.50108 17.9445 4.58623C17.7389 4.67138 17.5632 4.81557 17.4396 5.00058C17.316 5.18558 17.25 5.40309 17.25 5.6256C17.25 5.92396 17.3685 6.21011 17.5795 6.42109C17.7905 6.63207 18.0766 6.7506 18.375 6.7506ZM21.0619 12.0006C20.8637 11.9843 20.6672 12.0473 20.5155 12.1758C20.3638 12.3043 20.2693 12.4878 20.2528 12.6859C20.1186 14.2538 19.5393 15.7508 18.5832 17.0007C17.6271 18.2506 16.3338 19.2014 14.8557 19.7412C13.3775 20.2811 11.7759 20.3875 10.2393 20.048C8.70267 19.7085 7.295 18.9371 6.18191 17.8247C5.06881 16.7123 4.29658 15.3051 3.95609 13.7688C3.61561 12.2324 3.72102 10.6307 4.25993 9.15218C4.79884 7.67367 5.74883 6.37984 6.99812 5.42292C8.24741 4.466 9.74402 3.8858 11.3119 3.75059C11.4104 3.74247 11.5063 3.71502 11.5942 3.66983C11.682 3.62463 11.7602 3.56256 11.8241 3.48717C11.888 3.41178 11.9364 3.32455 11.9666 3.23044C11.9968 3.13634 12.0081 3.03721 12 2.93872C11.9919 2.84023 11.9644 2.7443 11.9192 2.65642C11.874 2.56853 11.812 2.49041 11.7366 2.42651C11.6612 2.36261 11.5739 2.31419 11.4798 2.28401C11.3857 2.25382 11.2866 2.24247 11.1881 2.25059C9.33564 2.40994 7.5672 3.09504 6.09087 4.2253C4.61453 5.35557 3.49172 6.88397 2.85452 8.63069C2.21732 10.3774 2.09224 12.2698 2.49401 14.0852C2.89577 15.9006 3.80767 17.5634 5.1224 18.8782C6.43714 20.1929 8.10002 21.1048 9.91541 21.5066C11.7308 21.9083 13.6232 21.7833 15.3699 21.1461C17.1166 20.5089 18.645 19.386 19.7753 17.9097C20.9055 16.4334 21.5906 14.6649 21.75 12.8125C21.7585 12.7139 21.7473 12.6147 21.7173 12.5204C21.6872 12.4262 21.6388 12.3388 21.5749 12.2633C21.5109 12.1879 21.4327 12.1258 21.3446 12.0807C21.2566 12.0356 21.1605 12.0084 21.0619 12.0006ZM12 5.2506C13.335 5.25059 14.6401 5.64648 15.7501 6.38818C16.8601 7.12987 17.7253 8.18408 18.2362 9.41748C18.7471 10.6509 18.8807 12.0081 18.6203 13.3175C18.3598 14.6268 17.717 15.8296 16.773 16.7736C15.829 17.7176 14.6262 18.3604 13.3168 18.6209C12.0075 18.8813 10.6503 18.7477 9.41687 18.2368C8.18347 17.7259 7.12927 16.8607 6.38757 15.7507C5.64587 14.6407 5.24999 13.3356 5.24999 12.0006C5.25197 10.211 5.96377 8.49526 7.22921 7.22982C8.49465 5.96438 10.2104 5.25258 12 5.2506ZM11.25 12.0006C11.25 12.1995 11.329 12.3903 11.4697 12.5309C11.6103 12.6716 11.8011 12.7506 12 12.7506H16.5C16.6989 12.7506 16.8897 12.6716 17.0303 12.5309C17.171 12.3903 17.25 12.1995 17.25 12.0006C17.25 11.8017 17.171 11.6109 17.0303 11.4703C16.8897 11.3296 16.6989 11.2506 16.5 11.2506H12.75V7.5006C12.75 7.30168 12.671 7.11092 12.5303 6.97026C12.3897 6.82961 12.1989 6.7506 12 6.7506C11.8011 6.7506 11.6103 6.82961 11.4697 6.97026C11.329 7.11092 11.25 7.30168 11.25 7.5006V12.0006ZM15 4.5006C15.2225 4.5006 15.44 4.43461 15.625 4.311C15.81 4.18738 15.9542 4.01168 16.0394 3.80611C16.1245 3.60055 16.1468 3.37435 16.1034 3.15612C16.06 2.93789 15.9528 2.73743 15.7955 2.5801C15.6381 2.42277 15.4377 2.31562 15.2195 2.27221C15.0012 2.2288 14.775 2.25108 14.5695 2.33623C14.3639 2.42138 14.1882 2.56557 14.0646 2.75058C13.941 2.93558 13.875 3.15309 13.875 3.37559C13.875 3.67396 13.9935 3.96011 14.2045 4.17109C14.4155 4.38207 14.7016 4.5006 15 4.5006Z" fill="black"/>
</svg>
