<svg width="24" height="24" viewBox="0 0 24 24" fill="none" xmlns="http://www.w3.org/2000/svg">
<path d="M21.5625 19.4941C21.5625 19.6433 21.5032 19.7864 21.3977 19.8919C21.2923 19.9974 21.1492 20.0566 21 20.0566H3C2.85082 20.0566 2.70774 19.9974 2.60225 19.8919C2.49676 19.7864 2.4375 19.6433 2.4375 19.4941V4.49414C2.4375 4.34496 2.49676 4.20188 2.60225 4.09639C2.70774 3.9909 2.85082 3.93164 3 3.93164C3.14918 3.93164 3.29226 3.9909 3.39775 4.09639C3.50324 4.20188 3.5625 4.34496 3.5625 4.49414V13.7548L8.62969 9.32039C8.72679 9.23555 8.85009 9.18665 8.97894 9.18187C9.1078 9.17709 9.23438 9.21673 9.3375 9.29414L14.9728 13.5204L20.6297 8.57039C20.7429 8.48316 20.8852 8.44232 21.0274 8.45616C21.1697 8.47001 21.3014 8.53751 21.3957 8.64494C21.49 8.75238 21.5398 8.89169 21.5351 9.03456C21.5304 9.17743 21.4715 9.31315 21.3703 9.41414L15.3703 14.6641C15.2732 14.749 15.1499 14.7979 15.0211 14.8027C14.8922 14.8074 14.7656 14.7678 14.6625 14.6904L9.02719 10.4679L3.5625 15.2491V18.9316H21C21.1492 18.9316 21.2923 18.9909 21.3977 19.0964C21.5032 19.2019 21.5625 19.345 21.5625 19.4941Z" fill="black"/>
</svg>
