<svg width="17" height="16" viewBox="0 0 17 16" fill="none" xmlns="http://www.w3.org/2000/svg">
<path d="M11.0984 6.235C11.1686 6.30531 11.208 6.40062 11.208 6.5C11.208 6.59938 11.1686 6.69469 11.0984 6.765L7.59838 10.265C7.52806 10.3352 7.43275 10.3747 7.33338 10.3747C7.234 10.3747 7.13869 10.3352 7.06838 10.265L5.56838 8.765C5.50214 8.69391 5.46608 8.59989 5.46779 8.50274C5.4695 8.40559 5.50886 8.3129 5.57757 8.24419C5.64627 8.17548 5.73897 8.13613 5.83612 8.13441C5.93327 8.1327 6.02729 8.16876 6.09838 8.235L7.33338 9.46937L10.5684 6.235C10.6387 6.16477 10.734 6.12533 10.8334 6.12533C10.9328 6.12533 11.0281 6.16477 11.0984 6.235ZM14.7084 8C14.7084 9.26086 14.3345 10.4934 13.634 11.5418C12.9335 12.5901 11.9379 13.4072 10.773 13.8897C9.6081 14.3722 8.3263 14.4985 7.08968 14.2525C5.85305 14.0065 4.71713 13.3994 3.82557 12.5078C2.93401 11.6162 2.32685 10.4803 2.08087 9.2437C1.83489 8.00707 1.96114 6.72527 2.44364 5.56039C2.92615 4.39551 3.74325 3.39988 4.79162 2.69938C5.83998 1.99889 7.07252 1.625 8.33338 1.625C10.0235 1.62698 11.6439 2.29927 12.839 3.49439C14.0341 4.6895 14.7064 6.30985 14.7084 8ZM13.9584 8C13.9584 6.88748 13.6285 5.79994 13.0104 4.87492C12.3923 3.94989 11.5138 3.22892 10.486 2.80318C9.45814 2.37743 8.32714 2.26604 7.23599 2.48308C6.14485 2.70012 5.14257 3.23585 4.3559 4.02252C3.56923 4.80919 3.0335 5.81147 2.81646 6.90262C2.59942 7.99376 2.71081 9.12476 3.13655 10.1526C3.5623 11.1804 4.28327 12.0589 5.20829 12.677C6.13332 13.2951 7.22086 13.625 8.33338 13.625C9.82471 13.6233 11.2545 13.0302 12.309 11.9756C13.3636 10.9211 13.9567 9.49133 13.9584 8Z" fill="#149414"/>
</svg>
