<svg width="24" height="24" viewBox="0 0 24 24" fill="none" xmlns="http://www.w3.org/2000/svg">
<path d="M22.1578 5.11281C21.5888 4.50312 20.9005 4.01697 20.1356 3.68458C19.3708 3.35219 18.5457 3.18066 17.7117 3.18066C16.8778 3.18066 16.0527 3.35219 15.2879 3.68458C14.523 4.01697 13.8347 4.50312 13.2656 5.11281C12.7349 5.6708 12.3065 6.31786 12 7.02437C11.6934 6.31853 11.265 5.67211 10.7344 5.11469C10.1654 4.50499 9.47706 4.01884 8.71219 3.68645C7.94733 3.35406 7.12227 3.18254 6.2883 3.18254C5.45434 3.18254 4.62928 3.35406 3.86442 3.68645C3.09955 4.01884 2.41122 4.50499 1.84221 5.11469C1.77992 5.18053 1.73447 5.26046 1.70972 5.34766C1.68498 5.43486 1.68167 5.52675 1.70008 5.6155C1.7185 5.70425 1.75808 5.78724 1.81548 5.85739C1.87287 5.92755 1.94637 5.9828 2.02971 6.01844L7.82627 8.54031C7.65284 8.57219 7.4794 8.60969 7.3069 8.65562C6.4751 8.87347 5.69472 9.25398 5.01084 9.77518C4.32695 10.2964 3.75313 10.9479 3.32252 11.6922C2.88903 12.4318 2.60767 13.2506 2.49498 14.1005C2.38228 14.9504 2.44052 15.8142 2.66627 16.6412C2.69027 16.7304 2.73583 16.8122 2.79894 16.8796C2.86205 16.947 2.94077 16.9977 3.02815 17.0275C3.08645 17.0472 3.14755 17.0573 3.20909 17.0575C3.3324 17.0575 3.4523 17.017 3.55034 16.9422L11.4375 10.9281V20.9931C11.4375 21.1423 11.4968 21.2854 11.6023 21.3909C11.7078 21.4964 11.8508 21.5556 12 21.5556C12.1492 21.5556 12.2923 21.4964 12.3978 21.3909C12.5033 21.2854 12.5625 21.1423 12.5625 20.9931V10.9281L20.4535 16.9403C20.5515 17.0151 20.6714 17.0556 20.7947 17.0556C20.8562 17.0554 20.9173 17.0453 20.9756 17.0256C21.063 16.9959 21.1417 16.9451 21.2049 16.8777C21.268 16.8104 21.3135 16.7285 21.3375 16.6394C21.5633 15.8123 21.6215 14.9485 21.5088 14.0986C21.3961 13.2487 21.1148 12.4299 20.6813 11.6903C20.2507 10.9461 19.6768 10.2945 18.993 9.7733C18.3091 9.25211 17.5287 8.87159 16.6969 8.65375C16.5244 8.60781 16.351 8.57031 16.1775 8.53844L21.9741 6.01656C22.0574 5.98093 22.1309 5.92568 22.1883 5.85552C22.2457 5.78536 22.2853 5.70237 22.3037 5.61362C22.3221 5.52487 22.3188 5.43298 22.2941 5.34579C22.2693 5.25859 22.2239 5.17866 22.1616 5.11281H22.1578ZM6.28877 4.30562C6.97002 4.30723 7.6437 4.44849 8.2682 4.72068C8.89271 4.99286 9.45478 5.39019 9.91971 5.88812C10.6952 6.70561 11.2014 7.74121 11.37 8.85531L3.27471 5.33687C4.13764 4.66914 5.19766 4.30645 6.28877 4.30562ZM3.58971 15.4928C3.47319 14.3666 3.71884 13.2326 4.29096 12.2556C4.64852 11.6397 5.12443 11.1005 5.69128 10.6693C6.25814 10.2381 6.90472 9.92332 7.59377 9.74312C8.05613 9.61935 8.53264 9.55632 9.01127 9.55562C9.66561 9.55539 10.3146 9.67387 10.9266 9.90531L3.58971 15.4928ZM19.7091 12.2556C20.2812 13.2326 20.5269 14.3666 20.4103 15.4928L13.0753 9.90437C14.2808 9.45096 15.6077 9.43826 16.8216 9.86851C18.0355 10.2988 19.0583 11.1443 19.7091 12.2556ZM12.63 8.85531C12.7987 7.74121 13.3049 6.70561 14.0803 5.88812C14.5453 5.39019 15.1073 4.99286 15.7318 4.72068C16.3564 4.44849 17.03 4.30723 17.7113 4.30562C18.8024 4.30645 19.8624 4.66914 20.7253 5.33687L12.63 8.85531Z" fill="black"/>
</svg>
