<svg width="12" height="20" viewBox="0 0 12 20" fill="none" xmlns="http://www.w3.org/2000/svg">
<path d="M10.8975 14.103C11.0028 14.2085 11.062 14.3514 11.062 14.5005C11.062 14.6495 11.0028 14.7925 10.8975 14.898L6.39751 19.398C6.29204 19.5033 6.14907 19.5625 6.00001 19.5625C5.85094 19.5625 5.70798 19.5033 5.60251 19.398L1.10251 14.898C1.00315 14.7914 0.949055 14.6503 0.951626 14.5046C0.954197 14.3589 1.01323 14.2198 1.11629 14.1168C1.21935 14.0137 1.35839 13.9547 1.50412 13.9521C1.64984 13.9495 1.79088 14.0036 1.89751 14.103L6.00001 18.2045L10.1025 14.103C10.208 13.9976 10.3509 13.9385 10.5 13.9385C10.6491 13.9385 10.792 13.9976 10.8975 14.103ZM1.89751 5.89798L6.00001 1.79642L10.1025 5.89798C10.2091 5.99734 10.3502 6.05143 10.4959 6.04886C10.6416 6.04629 10.7807 5.98726 10.8837 5.8842C10.9868 5.78114 11.0458 5.6421 11.0484 5.49637C11.051 5.35065 10.9969 5.20961 10.8975 5.10298L6.39751 0.602982C6.29204 0.497644 6.14907 0.438477 6.00001 0.438477C5.85094 0.438477 5.70798 0.497644 5.60251 0.602982L1.10251 5.10298C1.00315 5.20961 0.949055 5.35065 0.951626 5.49637C0.954197 5.6421 1.01323 5.78114 1.11629 5.8842C1.21935 5.98726 1.35839 6.04629 1.50412 6.04886C1.64984 6.05143 1.79088 5.99734 1.89751 5.89798Z" fill="#898989"/>
</svg>
